HIERARCHY
ROOT pelvis
{
  OFFSET 0 100 0
  CHANNELS 6 Xposition Yposition Zposition Zrotation Xrotation Yrotation
  JOINT pelvis_right_femur
  {
    OFFSET -10.78128 -3.44521 -0.5502486
    CHANNELS 3 Zrotation Xrotation Yrotation
    JOINT right_femur_tibia
    {
      OFFSET -0.8047443 -44.0398 -0.1307829
      CHANNELS 3 Zrotation Xrotation Yrotation
      JOINT right_tibia_foot
      {
        OFFSET 3.006224 -47.83518 -5
        CHANNELS 3 Zrotation Xrotation Yrotation
        End Site
        {
          OFFSET 0 -5 15
        }
      }
    }
  }
  JOINT pelvis_left_femur
  {
    OFFSET 10.78128 -3.44521 -0.5502486
    CHANNELS 3 Zrotation Xrotation Yrotation
    JOINT left_femur_tibia
    {
      OFFSET 0.8047443 -44.0398 -0.1307829
      CHANNELS 3 Zrotation Xrotation Yrotation
      JOINT left_tibia_foot
      {
        OFFSET -4.370144 -48.10324 -4.275266
        CHANNELS 3 Zrotation Xrotation Yrotation
        End Site
        {
          OFFSET 0 -5 15
        }
      }
    }
  }
  JOINT pelvis_spine1
  {
    OFFSET 0 6.468898 -3.129235
    CHANNELS 3 Zrotation Xrotation Yrotation
    JOINT spine1
    {
      OFFSET 0 23.15396 4.99043
      CHANNELS 3 Zrotation Xrotation Yrotation
      JOINT spine2
      {
        OFFSET 0 20.79997 -5.064912
        CHANNELS 3 Zrotation Xrotation Yrotation
        JOINT neck
        {
          OFFSET 0 14.38658 9.616178
          CHANNELS 3 Zrotation Xrotation Yrotation
          End Site
          {
            OFFSET 0 20 0
          }
        }
      }
      JOINT right_manubrium
      {
        OFFSET -5.722621 16.35077 3.967754
        CHANNELS 3 Zrotation Xrotation Yrotation
        JOINT right_clavicle
        {
          OFFSET -13.16364 1.694482 -4.693211
          CHANNELS 3 Zrotation Xrotation Yrotation
          JOINT right_humerus
          {
            OFFSET -28.5034 -0.3100689 -2.792744
            CHANNELS 3 Zrotation Xrotation Yrotation
            JOINT right_radius
            {
              OFFSET -25.15693 0.02248979 -1.271978
              CHANNELS 3 Zrotation Xrotation Yrotation
              End Site
              {
                OFFSET -15 0 0
              }
            }
          }
        }
      }
      JOINT left_manubrium
      {
        OFFSET 5.722621 16.35077 3.967754
        CHANNELS 3 Zrotation Xrotation Yrotation
        JOINT left_clavicle
        {
          OFFSET 13.16364 1.694482 -4.693211
          CHANNELS 3 Zrotation Xrotation Yrotation
          JOINT left_humerus
          {
            OFFSET 29.39168 -1.063119 -2.237045
            CHANNELS 3 Zrotation Xrotation Yrotation
            JOINT left_radius
            {
              OFFSET 24.59957 -0.9528479 0.9047498
              CHANNELS 3 Zrotation Xrotation Yrotation
              End Site
              {
                OFFSET 15 -0 -0
              }
            }
          }
        }
      }
    }
  }
}
MOTION
Frames: 17
Frame Time: 0.0416666666667
0 103.5113 0 0.8620357 -1.140082 -0.02822242 3.247168 -16.1645 8.665458 -0 37.51972 -0 -6.02353 -16.29803 -5.633323 -6.393726 12.7331 -24.61048 -0 7.783862 -0 -0.8475362 -20.8826 22.85511 -3.789164 -2.830289 3.548976 2.367523 7.428008 -8.219381 0.6393115 22.99147 8.001877 4.329581 -22.89241 8.334713 7.392775 -18.29862 11.13502 86.13745 38.33351 -21.89491 -0 0 15.84937 -7.601513 8.986722 4.854595 4.44437 -18.57833 -2.685205 -100.566 41.11537 28.43379 0 0 -18.961 -11.95082 15.88324 28.4311
0.1106777 103.6282 1.282125 0.8213187 -1.226337 -0.06037936 3.252257 -16.22434 8.544226 -0 37.58951 -0 -6.083596 -16.2796 -5.596953 -6.347666 12.73031 -24.4423 -0 7.490251 -0 -0.6666386 -20.84794 22.82695 -3.781319 -2.818585 3.483685 2.412375 7.494989 -8.222904 0.6415549 23.03375 7.948819 4.238037 -22.92751 8.34678 7.256141 -18.33857 11.18294 86.17111 37.94456 -21.79844 -0 0 15.70188 -7.679602 8.854483 4.919392 4.439858 -18.65651 -2.69817 -100.1855 40.75906 28.03145 0 0 -18.96814 -11.4579 16.05278 27.77969
0.2091493 102.9056 4.413448 -0.4330449 0.2512631 0.07729874 3.792241 -28.20153 2.188222 -0 20.53224 -0 -6.344697 -6.292533 -2.173519 -5.194609 15.20543 -18.4663 -0 6.103027 -0 -3.525591 -24.425 16.32988 -2.234268 -1.138356 2.712966 2.526128 8.093781 -8.355254 0.6917147 21.91464 8.412559 4.685834 -24.15258 8.438024 4.950899 -17.84622 11.24958 88.04681 32.85091 -22.86324 -0 0 12.5804 -11.91895 9.514392 6.244857 6.756514 -22.1193 -3.595943 -92.36115 33.85119 19.28307 0 0 -25.74629 -3.278768 16.64608 17.89362
0.2659633 101.9364 8.150065 -0.7182907 0.7118262 0.3145308 3.916657 -31.16871 0.718756 -0 15.93525 -0 -6.747749 -3.491738 -1.713837 -4.819597 15.81404 -16.56182 -0 6.727197 -0 -4.326529 -24.93422 14.40929 -1.821177 -0.7527428 2.430582 2.589905 8.222119 -8.506549 0.6902547 21.57596 8.386541 4.675925 -24.37958 8.293994 4.34258 -17.63326 11.31419 88.75687 31.74807 -23.30239 -0 0 11.43027 -13.23846 9.751696 6.941424 6.989557 -22.97064 -3.889546 -90.42664 31.82174 17.22924 0 0 -27.66457 -1.758805 16.32496 16.06761
0.269173 100.8714 12.93439 -1.27031 1.636342 0.7617778 4.479254 -35.20556 -0.8519082 -0 10.22086 -0 -7.738095 0.5930996 -1.3491 -4.131924 16.75313 -13.84535 -0 8.661776 -0 -5.400902 -25.09896 11.5508 -1.141085 -0.3367524 1.881376 2.786096 8.284399 -8.808744 0.7313397 21.03556 8.194391 4.467157 -24.96918 8.115994 3.372219 -17.27271 11.41249 90.03253 30.44352 -24.01882 -0 0 9.540967 -14.87065 9.990023 8.083595 6.885934 -23.92919 -4.159791 -87.94961 28.79118 14.83204 0 0 -30.15503 0.03389703 15.61089 14.02206
0.2655376 99.51559 18.28465 -1.37643 1.399488 1.239555 4.139913 -36.45936 -2.492757 -0 6.91609 -0 -8.563368 3.086715 -1.05681 -3.882236 17.47443 -11.60331 -0 8.482587 -0 -5.230581 -25.02379 10.31179 -0.8048853 -0.4533346 1.612497 2.823257 8.829576 -9.067938 0.6574411 20.91765 7.921809 4.141904 -24.9653 7.774462 2.192904 -17.52439 11.55039 91.3674 28.39766 -24.63237 -0 0 8.108697 -16.72682 9.79307 9.028773 6.79076 -25.075 -4.743549 -85.99076 25.9789 12.93556 0 0 -32.46437 1.66332 15.17599 11.87759
0.2573035 98.06205 24.32591 -1.476953 1.229429 1.806819 3.956894 -37.19243 -3.761277 -0 3.856673 -0 -9.739894 5.840752 -1.038328 -3.61 18.29343 -9.344353 -0 9.06951 -0 -5.124004 -24.67755 9.095531 -0.3797945 -0.7419378 1.365869 2.846456 9.316503 -9.353847 0.6643924 20.80412 7.469962 3.663989 -25.15541 7.419002 0.8074497 -17.86894 11.60402 93.10948 26.31034 -25.4518 -0 0 6.483993 -18.44941 9.409518 10.02797 6.306269 -26.06634 -5.364684 -84.32619 23.53978 11.62706 0 0 -34.73436 2.431463 14.53938 10.99475
0.2642938 96.5985 30.8356 -1.499689 0.9643808 2.423895 3.92124 -36.87491 -4.326073 -0 2.380742 -0 -10.74187 7.518002 -1.217752 -3.480195 18.91013 -7.896569 -0 9.864478 -0 -4.790819 -24.12888 8.59198 -0.06745057 -1.146381 1.251409 2.846481 9.662959 -9.540256 0.7290253 20.82545 6.995915 3.167299 -25.34941 7.180779 -0.3707354 -18.23804 11.57326 94.58878 24.63382 -26.06826 -0 0 5.266536 -19.42279 8.90149 10.61584 5.736061 -26.63384 -5.809072 -83.35449 22.07051 11.05145 0 0 -36.15467 2.651053 14.0962 10.85461
0.2916927 95.20151 37.70962 -1.45038 0.5051298 3.053803 4.01848 -35.58515 -4.435512 -0 1.899399 -0 -11.72368 8.505083 -1.613984 -3.449606 19.43924 -6.853117 -0 11.24071 -0 -4.229461 -23.23936 8.582068 0.2119687 -1.682192 1.227505 2.820577 9.947428 -9.651426 0.8640537 20.99849 6.407436 2.556734 -25.50761 6.999389 -1.596784 -18.64455 11.46528 96.08165 22.9087 -26.57083 -0 0 4.144129 -19.92619 8.214224 10.91746 5.044353 -26.94384 -6.178263 -82.70482 21.10263 10.81066 0 0 -37.0784 2.622148 13.78656 11.06606
0.3379955 93.99442 44.82557 -1.364078 -0.05282388 3.662132 4.318571 -33.39675 -3.973367 -0 2.547266 -0 -12.58253 8.673992 -2.26766 -3.470473 19.75688 -6.370896 -0 13.53727 -0 -3.673281 -21.94144 8.960013 0.4710053 -2.256171 1.284286 2.773002 10.08036 -9.660127 1.074729 21.29841 5.75163 1.892122 -25.6333 6.901348 -2.684265 -18.97715 11.28645 97.40089 21.43593 -26.89153 -0 0 3.238198 -19.83114 7.464578 10.90849 4.255375 -26.85528 -6.396439 -82.48174 20.89333 10.98598 0 0 -37.23437 2.197827 13.62068 11.834
0.3911264 93.11876 52.03541 -1.280339 -0.7060251 4.195525 4.856734 -30.27177 -2.931514 -0 4.492692 -0 -13.21399 7.777914 -3.176721 -3.511402 19.70228 -6.559811 -0 17.35463 -0 -3.316485 -20.04807 9.622026 0.7265034 -2.779458 1.412 2.703491 9.999449 -9.524303 1.359562 21.73917 5.075683 1.222667 -25.64135 6.914618 -3.486266 -19.10115 11.06524 98.36302 20.39977 -26.94766 -0 0 2.640807 -19.05683 6.783759 10.526 3.446056 -26.27605 -6.382751 -82.76983 21.50791 11.54487 0 0 -36.38777 1.483054 13.67475 12.98091
0.4330768 92.737 59.14156 -1.246707 -1.383299 4.580463 5.599427 -26.30687 -1.369408 -0 7.725574 -0 -13.4227 5.493352 -4.249143 -3.529833 18.87301 -7.53369 -0 23.40335 -0 -3.521066 -17.41814 10.35698 0.97024 -3.045311 1.618832 2.615636 9.623266 -9.187366 1.676654 22.29717 4.521955 0.6975207 -25.4183 7.06453 -3.655129 -18.8139 10.8761 98.56642 20.26776 -26.60235 -0 0 2.549444 -17.57071 6.432122 9.74718 2.755998 -25.09854 -6.03704 -83.74084 23.03773 12.50725 0 0 -34.20119 0.580582 13.99425 14.31914
0.457191 92.98543 65.91624 -1.312376 -1.90773 4.740389 6.420134 -21.90614 0.4235389 -0 11.68051 -0 -12.99636 1.67781 -5.115457 -3.510812 16.57644 -9.157219 -0 32.18616 -0 -4.638118 -14.07159 10.82689 1.150579 -2.760405 1.948896 2.525723 8.951077 -8.617602 1.894585 22.86414 4.370969 0.5797991 -24.87368 7.349219 -2.748941 -17.92895 10.84777 97.47961 21.71705 -25.70136 -0 0 3.178124 -15.59726 6.80782 8.668391 2.408802 -23.38933 -5.295378 -85.48414 25.20524 13.85334 0 0 -30.59121 -0.1166266 14.51733 15.27755
0.4982144 93.86244 72.18269 -1.400149 -2.06655 4.648416 7.002003 -17.61922 1.884507 -0 14.83027 -0 -11.88308 -3.152587 -5.122792 -3.527744 11.94173 -10.74077 -0 43.02796 -0 -6.498841 -10.43629 10.82453 1.111007 -1.725344 2.553817 2.446361 8.234412 -7.870182 1.798178 23.22896 4.918013 1.122173 -24.09248 7.661172 -0.6097667 -16.57648 11.09002 94.82207 25.22008 -24.11692 -0 0 4.540158 -13.79005 8.152351 7.657459 2.579933 -21.5904 -4.269034 -87.6758 27.07365 15.45726 0 0 -26.25416 0.1117086 14.8247 14.95452
0.6343352 95.14145 77.95064 -1.237153 -1.90287 4.384078 6.922056 -13.3829 2.522762 -0 15.55602 -0 -10.51548 -7.549116 -3.90824 -3.607854 4.742208 -11.23116 -0 53.11606 -0 -7.949115 -7.334819 10.71907 0.6706286 -0.2713469 3.640519 2.321127 8.011793 -7.115658 1.305002 23.20068 6.015939 2.179802 -23.44067 7.771361 1.982752 -15.55045 11.55893 91.31291 30.06771 -21.92069 -0 0 6.288995 -13.03116 9.995549 7.352461 3.090921 -20.40179 -3.304593 -89.42255 27.4066 17.16502 0 0 -22.7962 1.665437 14.13456 13.01872
0.9160661 96.4519 83.41294 -0.6634062 -1.930668 4.080083 6.150391 -8.354312 2.474394 -0 14.10499 -0 -9.626958 -10.25653 -2.197538 -3.446426 -3.680621 -10.21395 -0 58.65128 -0 -7.769525 -5.403796 11.3108 -0.05980515 0.7878138 5.101796 2.017445 8.606597 -6.497965 0.7252679 22.87369 6.84188 3.042132 -23.15171 7.522038 3.58505 -15.82321 12.05964 88.45556 34.07287 -19.44883 -0 0 8.142329 -13.71188 11.34835 8.1379 3.416099 -20.04771 -2.762725 -90.08062 25.99754 19.00215 0 0 -21.26508 3.667291 12.33845 10.68855
1.320774 97.48382 88.74818 0.01736996 -2.567792 3.814913 5.291479 -2.490229 2.26125 -0 12.24541 -0 -9.350878 -11.56773 -1.113316 -2.670008 -11.2057 -8.304007 -0 57.90868 -0 -6.17628 -4.56507 12.81395 -0.6441183 1.062046 6.381691 1.510014 9.662204 -6.003493 0.4696645 22.55332 6.74686 3.122513 -22.94391 7.028847 3.588143 -17.4067 12.39439 86.89667 35.48404 -16.90508 -0 0 10.29332 -15.39304 11.9215 9.658855 3.312786 -20.01302 -2.699247 -90.01958 23.93059 20.98384 0 0 -20.81715 4.905822 10.68224 9.30898
